<svg width="20" height="20" viewBox="0 0 20 20" fill="none" xmlns="http://www.w3.org/2000/svg">
<path d="M1.92857 3.35715C1.54969 3.35715 1.18633 3.50766 0.918419 3.77557C0.65051 4.04348 0.5 4.40684 0.5 4.78572V17.6429C0.5 18.0217 0.65051 18.3851 0.918419 18.653C1.18633 18.9209 1.54969 19.0714 1.92857 19.0714H17.6429C18.0217 19.0714 18.3851 18.9209 18.653 18.653C18.9209 18.3851 19.0714 18.0217 19.0714 17.6429V4.78572C19.0714 4.40684 18.9209 4.04348 18.653 3.77557C18.3851 3.50766 18.0217 3.35715 17.6429 3.35715H14.7857" stroke="#A6A6A6" stroke-linecap="round" stroke-linejoin="round"/>
<path d="M0.5 9.07143H19.0714" stroke="#A6A6A6" stroke-linecap="round" stroke-linejoin="round"/>
<path d="M4.78613 0.5V6.21429" stroke="#A6A6A6" stroke-linecap="round" stroke-linejoin="round"/>
<path d="M14.7861 0.5V6.21429" stroke="#A6A6A6" stroke-linecap="round" stroke-linejoin="round"/>
<path d="M4.78613 3.35715H11.929" stroke="#A6A6A6" stroke-linecap="round" stroke-linejoin="round"/>
</svg>
