<svg width="31" height="29" viewBox="0 0 31 29" fill="none" xmlns="http://www.w3.org/2000/svg">
<path d="M10.7857 10.7857C13.626 10.7857 15.9286 8.48318 15.9286 5.64286C15.9286 2.80254 13.626 0.5 10.7857 0.5C7.94539 0.5 5.64285 2.80254 5.64285 5.64286C5.64285 8.48318 7.94539 10.7857 10.7857 10.7857Z" stroke="currentColor" stroke-linecap="round" stroke-linejoin="round"/>
<path d="M21.0714 27.9286H0.5V25.6429C0.5 22.9149 1.58367 20.2987 3.51262 18.3698C5.44156 16.4408 8.05777 15.3571 10.7857 15.3571C13.5137 15.3571 16.1299 16.4408 18.0588 18.3698C19.9878 20.2987 21.0714 22.9149 21.0714 25.6429V27.9286Z" stroke="currentColor" stroke-linecap="round" stroke-linejoin="round"/>
<path d="M19.9286 0.5C21.2925 0.5 22.6006 1.04184 23.5651 2.00631C24.5296 2.97078 25.0714 4.27889 25.0714 5.64286C25.0714 7.00683 24.5296 8.31493 23.5651 9.27941C22.6006 10.2439 21.2925 10.7857 19.9286 10.7857" stroke="currentColor" stroke-linecap="round" stroke-linejoin="round"/>
<path d="M23.5857 15.7914C25.5328 16.5321 27.209 17.8465 28.3927 19.5608C29.5763 21.275 30.2115 23.3083 30.2143 25.3914V27.9286H26.7857" stroke="currentColor" stroke-linecap="round" stroke-linejoin="round"/>
</svg>
