<svg width="20" height="20" viewBox="0 0 20 20" fill="none" xmlns="http://www.w3.org/2000/svg">
<path d="M12.6392 0.833008L13.1375 1.76467C13.4742 2.39384 13.6425 2.70884 13.5309 2.84384C13.42 2.97884 13.0534 2.86967 12.3192 2.65217C11.5663 2.42932 10.7852 2.31622 10 2.31634C5.62754 2.31634 2.08338 5.75634 2.08338 9.99967C2.08205 11.3524 2.44782 12.6801 3.14171 13.8413M7.36171 19.1663L6.86338 18.2347C6.52671 17.6047 6.35838 17.2897 6.47004 17.1555C6.58088 17.0205 6.94754 17.1288 7.68171 17.3472C8.41504 17.5647 9.19421 17.6822 10.0009 17.6822C14.3734 17.6822 17.9175 14.2422 17.9175 9.99884C17.9187 8.6464 17.553 7.31897 16.8592 6.15801" stroke="#5E5E5E" stroke-linecap="round" stroke-linejoin="round"/>
</svg>
