<svg width="20" height="20" viewBox="0 0 20 20" fill="none" xmlns="http://www.w3.org/2000/svg">
<g clip-path="url(#clip0_40001985_51258)">
<path d="M0.714355 19.2856H16.4286" stroke="#5E5E5E" stroke-linecap="round" stroke-linejoin="round"/>
<path d="M9.28571 14.2858L5 15.0572L5.71429 10.7143L15.3286 1.12862C15.4614 0.994726 15.6194 0.888448 15.7935 0.815922C15.9675 0.743395 16.1543 0.706055 16.3429 0.706055C16.5314 0.706055 16.7182 0.743395 16.8923 0.815922C17.0663 0.888448 17.2243 0.994726 17.3571 1.12862L18.8714 2.64291C19.0053 2.77571 19.1116 2.93372 19.1841 3.1078C19.2567 3.28188 19.294 3.46861 19.294 3.65719C19.294 3.84578 19.2567 4.03251 19.1841 4.20659C19.1116 4.38067 19.0053 4.53868 18.8714 4.67148L9.28571 14.2858Z" stroke="#5E5E5E" stroke-linecap="round" stroke-linejoin="round"/>
</g>
<defs>
<clipPath id="clip0_40001985_51258">
<rect width="20" height="20" fill="white"/>
</clipPath>
</defs>
</svg>
