<svg width="20" height="20" viewBox="0 0 20 20" fill="none" xmlns="http://www.w3.org/2000/svg">
<path d="M18.9 9.04279C19.1369 9.30529 19.268 9.64633 19.268 9.99993C19.268 10.3535 19.1369 10.6946 18.9 10.9571C17.4 12.5714 13.9857 15.7142 9.99999 15.7142C6.01428 15.7142 2.59999 12.5714 1.09999 10.9571C0.863075 10.6946 0.731934 10.3535 0.731934 9.99993C0.731934 9.64633 0.863075 9.30529 1.09999 9.04279C2.59999 7.4285 6.01428 4.28564 9.99999 4.28564C13.9857 4.28564 17.4 7.4285 18.9 9.04279Z" stroke="#A6A6A6" stroke-linecap="round" stroke-linejoin="round"/>
<path d="M9.99997 12.8569C11.5779 12.8569 12.8571 11.5777 12.8571 9.99972C12.8571 8.42176 11.5779 7.14258 9.99997 7.14258C8.42201 7.14258 7.14282 8.42176 7.14282 9.99972C7.14282 11.5777 8.42201 12.8569 9.99997 12.8569Z" stroke="#A6A6A6" stroke-linecap="round" stroke-linejoin="round"/>
</svg>
