<svg width="31" height="27" viewBox="0 0 31 27" fill="none" xmlns="http://www.w3.org/2000/svg">
<path d="M15.3571 3.92857C19.2975 3.92857 23.0765 5.49387 25.8627 8.28013C28.649 11.0664 30.2143 14.8454 30.2143 18.7857V18.7857C30.2143 19.3919 29.9735 19.9733 29.5448 20.402C29.1162 20.8306 28.5348 21.0714 27.9286 21.0714H2.78571C2.17951 21.0714 1.59812 20.8306 1.16947 20.402C0.740816 19.9733 0.5 19.3919 0.5 18.7857C0.5 14.8454 2.0653 11.0664 4.85156 8.28013C7.63781 5.49387 11.4168 3.92857 15.3571 3.92857V3.92857Z" stroke="currentColor" stroke-linecap="round" stroke-linejoin="round"/>
<path d="M15.3571 3.92857V0.5" stroke="currentColor" stroke-linecap="round" stroke-linejoin="round"/>
<path d="M0.5 25.6429H30.2143" stroke="currentColor" stroke-linecap="round" stroke-linejoin="round"/>
</svg>
