<svg width="40" height="40" viewBox="0 0 40 40" fill="none" xmlns="http://www.w3.org/2000/svg">
<path fill-rule="evenodd" clip-rule="evenodd" d="M17.9047 28.7639C16.3305 28.6931 13.9325 27.3213 12.7492 26.299C12.5634 26.1385 12.244 25.8173 12.1056 25.6614C11.9037 25.4341 11.7156 25.2811 11.5286 25.0384C10.7828 25.5187 9.7142 27.9327 9.40056 29.0212C8.87266 30.8535 9.26937 32.8981 8.18243 32.2148C7.96005 32.0751 7.61673 31.6318 7.42021 31.4233C2.30049 25.9924 1.51954 17.2477 5.60119 10.9263C6.24912 9.92272 6.44526 10.7 7.47238 11.2086C8.21425 11.576 9.13397 11.6998 10.0265 11.5091C11.0077 11.2996 11.4641 10.8729 12.0242 10.4233C11.885 10.0501 10.376 9.22357 9.95127 8.99985C9.07828 8.53993 7.73079 8.22399 8.49836 7.48286C9.49917 6.51654 10.9598 5.48279 12.4995 4.73845C22.7826 -0.233277 35.0874 6.03629 36.7822 17.5275C37.379 21.5735 36.4218 25.5569 34.6703 28.5178C31.0274 34.6756 23.9029 38.1327 16.4635 36.6142C15.8182 36.4825 14.0357 36.2746 14.5615 35.3939C14.6712 35.21 14.8169 35.1095 14.9701 34.9234C16.4855 33.0813 17.4213 31.3738 18.2344 28.9282C18.0541 28.8465 18.044 28.8951 17.9047 28.7639ZM0 18.9483C0 22.412 0.0335828 23.6195 1.18823 26.9314C1.82116 28.7468 2.98805 30.7831 4.19158 32.291L5.88866 34.2361C6.90003 35.0714 7.17817 35.479 8.47281 36.3732C10.3866 37.6953 12.7293 38.8378 15.0294 39.3951C18.2406 40.173 21.7529 40.2348 24.962 39.3807L26.8078 38.7981C27.8328 38.4525 28.4961 38.0835 29.3683 37.6486C30.1845 37.2417 31.2888 36.5259 32.0171 35.9805L33.9856 34.3067C34.3892 33.9339 34.3283 33.9317 34.5925 33.6321L35.1687 32.9944C35.2833 32.8589 35.3403 32.8253 35.4576 32.6762C35.8247 32.2094 36.1799 31.7688 36.498 31.2886C40.4688 25.2954 41.0625 18.5832 38.2808 11.9065C38.0324 11.3103 37.7885 10.8231 37.471 10.2884C36.5429 8.72489 36.5666 8.7528 35.4478 7.32068L34.2606 6.01228C33.8354 5.63082 33.658 5.38286 33.0098 4.83494C29.5429 1.90404 25.0978 0 20.4415 0C17.0472 0 14.2808 0.534084 11.6478 1.7973L9.32292 3.04736C8.33986 3.67831 8.09476 3.89875 7.25735 4.55669C5.08307 6.26498 3.19085 8.81657 1.95618 11.2609C1.06461 13.026 0 16.3121 0 18.9483Z" fill="white"/>
<path fill-rule="evenodd" clip-rule="evenodd" d="M11.7942 10.416L11.9372 10.3688C12.0301 10.0297 13.2195 9.16551 13.5877 8.92815C15.4404 7.734 17.21 7.10148 19.4824 7.01825C19.9272 7.00194 20.7144 7.09872 21.0363 7.04903C27.4771 7.88132 31.6847 13.4422 30.8479 19.4862C30.3874 22.8116 28.6313 25.0885 26.7893 26.5921C25.1676 27.9158 22.9849 28.7875 20.7655 28.9827C20.2491 29.0282 18.4435 29.1209 18.1417 28.8006L17.7385 28.7822C17.8793 28.9136 17.8894 28.8649 18.0717 28.9467C17.2498 31.3957 16.3039 33.1056 14.772 34.9502C14.6172 35.1366 14.4699 35.2373 14.359 35.4214C13.8275 36.3033 15.6293 36.5115 16.2817 36.6434C23.8016 38.164 31.0033 34.7021 34.6856 28.5357C36.4561 25.5707 37.4236 21.5818 36.8204 17.5301C35.1073 6.02287 22.6691 -0.255433 12.2747 4.72322C10.7183 5.4686 9.24187 6.50379 8.23022 7.47145C7.45433 8.21362 8.81642 8.53 9.69886 8.99056C10.1282 9.21459 11.6536 10.0423 11.7942 10.416Z" fill="#A6A6A6"/>
<path fill-rule="evenodd" clip-rule="evenodd" d="M11.6698 24.68C11.9375 23.9411 13.7653 22.6266 14.6907 22.0929C15.8046 21.4506 17.3971 20.8668 18.8712 20.7241C18.9326 20.8003 18.8692 20.703 18.9671 20.8546C18.9744 20.8657 18.9919 20.9097 19 20.9307L18.9528 20.6829C18.9964 20.0005 18.2663 17.9581 18.0141 17.3315C17.5873 16.2713 17.0994 15.3672 16.5315 14.4749C15.3781 12.663 13.9917 11.2575 12.3167 10L12.173 10.0472C11.6043 10.4973 11.1407 10.9245 10.1443 11.1343C9.2379 11.3252 8.30389 11.2013 7.5505 10.8334C6.50742 10.3242 6.30823 9.54596 5.65023 10.5507C1.50517 16.8798 2.29826 25.635 7.49751 31.0725C7.69709 31.2813 8.04574 31.7251 8.27157 31.865C9.3754 32.5491 8.97253 30.5021 9.50863 28.6675C9.82714 27.5777 10.9123 25.1608 11.6698 24.68Z" fill="#DD1A32"/>
<path fill-rule="evenodd" clip-rule="evenodd" d="M18.4068 21.0162L18.4544 21.2643C18.6421 22.6095 18.716 23.8121 18.6191 25.198C18.5729 25.8606 18.4986 26.4313 18.3776 27.0655C18.2873 27.5385 18.0096 28.4185 18 28.7694C18.3062 29.0899 20.1383 28.9972 20.6623 28.9517C22.9143 28.7564 25.129 27.8839 26.7745 26.5591C28.6436 25.0543 30.4254 22.7755 30.8927 19.4474C31.7418 13.3984 27.4724 7.83297 20.937 7C21.277 7.26667 21.9098 7.0823 23.5131 8.0342C25.8725 9.43501 27.2845 12.2811 26.7603 15.1937C26.3962 17.2162 25.2659 18.5989 24.0615 19.5157C22.3751 20.7994 20.8999 20.9139 18.4068 21.0162Z" fill="#C9C9C9"/>
<path fill-rule="evenodd" clip-rule="evenodd" d="M19.5126 10.999C21.2874 10.7508 22.717 12.0387 22.9332 13.5165C23.1945 15.3026 21.9036 16.7223 20.3808 16.9352C18.5536 17.1907 17.1148 15.9137 16.8994 14.3929C16.6439 12.5894 17.9631 11.2156 19.5126 10.999ZM12 10.3436C13.6734 11.598 15.0584 13 16.2106 14.8074C16.778 15.6974 17.2654 16.5994 17.6917 17.6569C17.9436 18.282 18.6731 20.3193 18.6295 21C21.0955 20.8981 22.5546 20.784 24.2227 19.5048C25.414 18.5912 26.5321 17.2133 26.8922 15.1978C27.4107 12.2953 26.014 9.45911 23.6803 8.06318C22.0944 7.11459 21.4685 7.29832 21.1322 7.03257C20.8092 7.08213 20.0192 6.98561 19.5727 7.00187C17.292 7.08488 15.516 7.71572 13.6565 8.9067C13.287 9.14342 12.0933 10.0053 12 10.3436Z" fill="white"/>
<path fill-rule="evenodd" clip-rule="evenodd" d="M12 25.1077C12.1764 25.3599 12.3538 25.519 12.5443 25.7553C12.6748 25.9174 12.9762 26.2514 13.1515 26.4182C14.2677 27.4811 16.5299 28.9073 18.015 28.9809L18.3914 29C18.4002 28.636 18.6556 27.7231 18.7386 27.2325C18.85 26.5746 18.9183 25.9825 18.9608 25.2952C19.0499 23.8575 18.982 22.61 18.8093 21.2146C18.8018 21.1927 18.7855 21.147 18.7788 21.1355C18.6878 20.9781 18.7467 21.0791 18.6897 21C17.3204 21.1482 15.841 21.7544 14.8063 22.4213C13.9466 22.9755 12.2487 24.3405 12 25.1077Z" fill="#3C3B3B"/>
<path fill-rule="evenodd" clip-rule="evenodd" d="M19.8326 12.3747C19.7281 12.2373 19.7576 12.295 19.6591 12.202C19.6476 12.1912 19.6308 12.1765 19.6204 12.1666L19.5055 12.047C22.2254 11.8504 22.4626 14.3904 21.4033 15.4246C19.9887 16.8057 17.5509 15.4789 18.0723 13.5105C18.29 13.7254 18.3011 13.9354 18.8034 14.0102C19.1866 14.0672 19.5154 13.9613 19.7206 13.7435C20.0728 13.3697 20.1515 12.7938 19.8326 12.3747ZM19.602 11.0308C18.0777 11.2474 16.78 12.6213 17.0313 14.4249C17.2432 15.9457 18.6585 17.2227 20.456 16.9673C21.9539 16.7544 23.2238 15.3346 22.9667 13.5484C22.754 12.0706 21.3478 10.7826 19.602 11.0308Z" fill="#C9C9C9"/>
<path fill-rule="evenodd" clip-rule="evenodd" d="M19.5097 12.0109L19.625 12.1317C19.6354 12.1418 19.6522 12.1567 19.6637 12.1675C19.7626 12.2616 19.733 12.2032 19.8378 12.3421C20.1576 12.7657 20.0788 13.3479 19.7255 13.7258C19.5196 13.9459 19.1898 14.053 18.8055 13.9953C18.3016 13.9198 18.2904 13.7074 18.0721 13.4902C17.5491 15.4799 19.9944 16.821 21.4132 15.425C22.4758 14.3796 22.2379 11.8121 19.5097 12.0109Z" fill="#3C3B3B"/>
</svg>
