<svg width="14" height="20" viewBox="0 0 14 20" fill="none" xmlns="http://www.w3.org/2000/svg">
<path d="M13.3571 6.92857C13.3571 10.4857 6.92857 19.0714 6.92857 19.0714C6.92857 19.0714 0.5 10.4857 0.5 6.92857C0.5 5.22361 1.17729 3.58848 2.38288 2.38289C3.58848 1.17729 5.22361 0.5 6.92857 0.5C8.63353 0.5 10.2687 1.17729 11.4743 2.38289C12.6798 3.58848 13.3571 5.22361 13.3571 6.92857V6.92857Z" stroke="#61A444" stroke-linecap="round" stroke-linejoin="round"/>
<path d="M6.92899 9.07143C8.11246 9.07143 9.07185 8.11205 9.07185 6.92858C9.07185 5.74511 8.11246 4.78572 6.92899 4.78572C5.74552 4.78572 4.78613 5.74511 4.78613 6.92858C4.78613 8.11205 5.74552 9.07143 6.92899 9.07143Z" stroke="#61A444" stroke-linecap="round" stroke-linejoin="round"/>
</svg>
