<svg width="22" height="31" viewBox="0 0 22 31" fill="none" xmlns="http://www.w3.org/2000/svg">
<path d="M21.0714 10.7857C21.0714 16.4771 10.7857 30.2143 10.7857 30.2143C10.7857 30.2143 0.5 16.4771 0.5 10.7857C0.5 8.05777 1.58367 5.44156 3.51262 3.51262C5.44156 1.58367 8.05777 0.5 10.7857 0.5C13.5137 0.5 16.1299 1.58367 18.0588 3.51262C19.9878 5.44156 21.0714 8.05777 21.0714 10.7857V10.7857Z" stroke="currentColor" stroke-linecap="round" stroke-linejoin="round"/>
<path d="M10.7857 14.2143C12.6793 14.2143 14.2143 12.6793 14.2143 10.7857C14.2143 8.89217 12.6793 7.35715 10.7857 7.35715C8.89217 7.35715 7.35715 8.89217 7.35715 10.7857C7.35715 12.6793 8.89217 14.2143 10.7857 14.2143Z" stroke="currentColor" stroke-linecap="round" stroke-linejoin="round"/>
</svg>
