<svg width="17" height="24" viewBox="0 0 17 24" fill="none" xmlns="http://www.w3.org/2000/svg">
<path d="M16.1786 8.46429C16.1786 12.7329 8.46429 23.0357 8.46429 23.0357C8.46429 23.0357 0.75 12.7329 0.75 8.46429C0.75 6.41833 1.56275 4.45617 3.00946 3.00946C4.45617 1.56275 6.41833 0.75 8.46429 0.75C10.5102 0.75 12.4724 1.56275 13.9191 3.00946C15.3658 4.45617 16.1786 6.41833 16.1786 8.46429Z" fill="white" stroke="#4E8D39" stroke-width="1.5" stroke-linecap="round" stroke-linejoin="round"/>
<path d="M8.46449 11.0354C9.88466 11.0354 11.0359 9.88417 11.0359 8.46401C11.0359 7.04385 9.88466 5.89258 8.46449 5.89258C7.04433 5.89258 5.89307 7.04385 5.89307 8.46401C5.89307 9.88417 7.04433 11.0354 8.46449 11.0354Z" fill="white" stroke="#4E8D39" stroke-width="1.5" stroke-linecap="round" stroke-linejoin="round"/>
</svg>
