<svg width="20" height="20" viewBox="0 0 20 20" fill="none" xmlns="http://www.w3.org/2000/svg">
<path d="M12.6393 0.833496L13.1377 1.76516C13.4743 2.39433 13.6427 2.70933 13.531 2.84433C13.4202 2.97933 13.0535 2.87016 12.3193 2.65266C11.5664 2.42981 10.7853 2.3167 10.0002 2.31683C5.62767 2.31683 2.0835 5.75683 2.0835 10.0002C2.08217 11.3529 2.44795 12.6806 3.14183 13.8418M7.36183 19.1668L6.8635 18.2352C6.52683 17.6052 6.3585 17.2902 6.47017 17.156C6.581 17.021 6.94767 17.1293 7.68183 17.3477C8.41517 17.5652 9.19433 17.6827 10.001 17.6827C14.3735 17.6827 17.9177 14.2427 17.9177 9.99933C17.9188 8.64688 17.5531 7.31946 16.8593 6.1585" stroke="#5E5E5E" stroke-linecap="round" stroke-linejoin="round"/>
</svg>
