<svg width="20" height="20" viewBox="0 0 20 20" fill="none" xmlns="http://www.w3.org/2000/svg">
<path d="M2.64286 4.78571C3.82632 4.78571 4.78571 3.82632 4.78571 2.64286C4.78571 1.45939 3.82632 0.5 2.64286 0.5C1.45939 0.5 0.5 1.45939 0.5 2.64286C0.5 3.82632 1.45939 4.78571 2.64286 4.78571Z" stroke="#5E5E5E" stroke-linecap="round" stroke-linejoin="round"/>
<path d="M4.78577 2.64258H19.0715" stroke="#5E5E5E" stroke-linecap="round" stroke-linejoin="round"/>
<path d="M9.78568 11.9283C10.9691 11.9283 11.9285 10.9689 11.9285 9.78544C11.9285 8.60197 10.9691 7.64258 9.78568 7.64258C8.60221 7.64258 7.64282 8.60197 7.64282 9.78544C7.64282 10.9689 8.60221 11.9283 9.78568 11.9283Z" stroke="#5E5E5E" stroke-linecap="round" stroke-linejoin="round"/>
<path d="M0.5 9.78613H7.64286" stroke="#5E5E5E" stroke-linecap="round" stroke-linejoin="round"/>
<path d="M11.9286 9.78613H19.0714" stroke="#5E5E5E" stroke-linecap="round" stroke-linejoin="round"/>
<path d="M16.9286 19.0718C18.1121 19.0718 19.0715 18.1125 19.0715 16.929C19.0715 15.7455 18.1121 14.7861 16.9286 14.7861C15.7452 14.7861 14.7858 15.7455 14.7858 16.929C14.7858 18.1125 15.7452 19.0718 16.9286 19.0718Z" stroke="#5E5E5E" stroke-linecap="round" stroke-linejoin="round"/>
<path d="M14.7857 16.9287H0.5" stroke="#5E5E5E" stroke-linecap="round" stroke-linejoin="round"/>
</svg>
